<svg width="28" height="30" viewBox="0 0 28 30" fill="none" xmlns="http://www.w3.org/2000/svg">
<path d="M7.47272 28.5101C8.03913 29.0592 7.63887 30 6.83458 30H1.80116C0.808066 30 0 29.2166 0 28.2539V23.3744C0 22.5947 0.970435 22.2067 1.53684 22.7558L7.47272 28.5101Z" fill="#FFF"/>
<path d="M15.3406 28.8898C13.8507 27.4096 13.8507 25.0097 15.3406 23.5295L20.7176 18.1875C22.2076 16.7073 24.6232 16.7073 26.1131 18.1875C27.603 19.6677 27.603 22.0676 26.1131 23.5478L20.736 28.8898C19.2461 30.37 16.8305 30.37 15.3406 28.8898Z" fill="#FFB629"/>
<path d="M1.1358 15.4668C-0.354106 13.9866 -0.354106 11.5867 1.1358 10.1065L10.1849 1.11015C11.6748 -0.370049 14.0904 -0.370051 15.5803 1.11015C17.0702 2.59035 17.0702 4.99023 15.5803 6.47043L6.53125 15.4668C5.04134 16.947 2.62571 16.947 1.1358 15.4668Z" fill="#0099FF"/>
<path d="M8.53308 21.8788C7.04317 20.3986 7.04317 17.9988 8.53308 16.5186L20.76 4.37132C22.2499 2.89112 24.6655 2.89112 26.1554 4.37132C27.6454 5.85152 27.6454 8.2514 26.1554 9.7316L13.9285 21.8788C12.4386 23.359 10.023 23.359 8.53308 21.8788Z" fill="#FF6100"/>
</svg>
